# xmcd
#
# Track frame offsets: 
#        150
#        11705
#        21175
#        31020
#        39402
#        50325
#        59932
#        71492
#        82067
#        91325
#        103392
#        113570
#
# Disc length: 1632 seconds
#
# Revision: 2
# Processed by: cddbd v1.5.2PL0 Copyright (c) Steve Scherf et al.
# Submitted via: ExactAudioCopy v0.99pb4
#
DISCID=9d065e0c
DTITLE=Johnny Cash - Now, There Was A Song
DYEAR=1960
DGENRE=Country
TTITLE0=Seasons Of My Heart
TTITLE1=I Feel Better All Over
TTITLE2=I Couldn't Keep From Crying
TTITLE3=Time Changes Everything
TTITLE4=My Shoes Keep Walking Back To You
TTITLE5=I'd Just Be Fool Enough (To Fall)
TTITLE6=Transfusion Blues
TTITLE7=Why Do You Punish Me
TTITLE8=I Will Miss You When You Go
TTITLE9=I'm So Lonesome I Could Cry
TTITLE10=Just One More
TTITLE11=Hony-Tonk Girl
EXTD=
EXTT0=
EXTT1=
EXTT2=
EXTT3=
EXTT4=
EXTT5=
EXTT6=
EXTT7=
EXTT8=
EXTT9=
EXTT10=
EXTT11=
PLAYORDER=
